{
  "asset": {
    "version": "2.0",
    "generator": "Sketchup glTF Exporter v1.2.6 by Centaur"
  },
  "scene": 0,
  "scenes": [
    {
      "nodes": [
        0
      ]
    }
  ],
  "samplers": [
    {
    }
  ],
  "nodes": [
    {
      "name": "root",
      "children": [
        1,
        4,
        7,
        8,
        10,
        11
      ],
      "mesh": 9
    },
    {
      "children": [
        2,
        3
      ]
    },
    {
      "mesh": 0
    },
    {
      "mesh": 1
    },
    {
      "children": [
        5,
        6
      ]
    },
    {
      "mesh": 2
    },
    {
      "mesh": 3
    },
    {
      "mesh": 4
    },
    {
      "children": [
        9
      ],
      "mesh": 6
    },
    {
      "mesh": 5
    },
    {
      "mesh": 7
    },
    {
      "mesh": 8
    }
  ],
  "materials": [
    {
      "pbrMetallicRoughness": {
        "baseColorFactor": [
          0.924,
          0.8434,
          0.7667,
          1.0
        ],
        "metallicFactor": 0.1,
        "roughnessFactor": 0.9
      },
      "name": "color_16182498"
    },
    {
      "pbrMetallicRoughness": {
        "baseColorFactor": [
          0.2176,
          0.2176,
          0.2176,
          1.0
        ],
        "metallicFactor": 0.1,
        "roughnessFactor": 0.9
      },
      "name": "default material",
      "doubleSided": true
    },
    {
      "pbrMetallicRoughness": {
        "baseColorFactor": [
          0.8671,
          0.7519,
          0.6524,
          1.0
        ],
        "metallicFactor": 0.1,
        "roughnessFactor": 0.9
      },
      "name": "Material18"
    },
    {
      "pbrMetallicRoughness": {
        "baseColorFactor": [
          0.2195,
          0.2195,
          0.2195,
          0.5
        ],
        "metallicFactor": 0.1,
        "roughnessFactor": 0.9
      },
      "name": "Translucent Glass Gray",
      "doubleSided": true,
      "alphaMode": "BLEND"
    },
    {
      "pbrMetallicRoughness": {
        "baseColorFactor": [
          0.0066,
          0.0026,
          0.005,
          1.0
        ],
        "metallicFactor": 0.1,
        "roughnessFactor": 0.9
      },
      "name": "Material12",
      "doubleSided": true
    },
    {
      "pbrMetallicRoughness": {
        "baseColorTexture": {
          "index": 0
        },
        "metallicFactor": 0.1,
        "roughnessFactor": 0.9
      },
      "name": "Translucent Glass Safety",
      "doubleSided": true,
      "alphaMode": "BLEND"
    },
    {
      "pbrMetallicRoughness": {
        "baseColorFactor": [
          0.3537,
          0.029,
          0.0179,
          1.0
        ],
        "metallicFactor": 0.1,
        "roughnessFactor": 0.9
      },
      "name": "Material11"
    }
  ],
  "images": [
    {
      "bufferView": 0,
      "mimeType": "image/jpeg"
    }
  ],
  "textures": [
    {
      "source": 0,
      "sampler": 0
    }
  ],
  "meshes": [
    {
      "primitives": [
        {
          "attributes": {
            "POSITION": 0,
            "NORMAL": 1
          },
          "indices": 5,
          "mode": 4,
          "material": 0
        },
        {
          "attributes": {
            "POSITION": 0,
            "NORMAL": 1
          },
          "indices": 6,
          "mode": 4,
          "material": 1
        }
      ]
    },
    {
      "primitives": [
        {
          "attributes": {
            "POSITION": 0,
            "NORMAL": 1
          },
          "indices": 7,
          "mode": 4,
          "material": 0
        },
        {
          "attributes": {
            "POSITION": 0,
            "NORMAL": 1
          },
          "indices": 8,
          "mode": 4,
          "material": 1
        }
      ]
    },
    {
      "primitives": [
        {
          "attributes": {
            "POSITION": 0,
            "NORMAL": 1
          },
          "indices": 9,
          "mode": 4,
          "material": 0
        },
        {
          "attributes": {
            "POSITION": 0,
            "NORMAL": 1
          },
          "indices": 10,
          "mode": 4,
          "material": 1
        }
      ]
    },
    {
      "primitives": [
        {
          "attributes": {
            "POSITION": 0,
            "NORMAL": 1
          },
          "indices": 11,
          "mode": 4,
          "material": 0
        },
        {
          "attributes": {
            "POSITION": 0,
            "NORMAL": 1
          },
          "indices": 12,
          "mode": 4,
          "material": 1
        }
      ]
    },
    {
      "primitives": [
        {
          "attributes": {
            "POSITION": 0,
            "NORMAL": 1
          },
          "indices": 13,
          "mode": 4,
          "material": 2
        },
        {
          "attributes": {
            "POSITION": 0,
            "NORMAL": 1
          },
          "indices": 14,
          "mode": 4,
          "material": 1
        }
      ]
    },
    {
      "primitives": [
        {
          "attributes": {
            "POSITION": 0,
            "NORMAL": 1
          },
          "indices": 15,
          "mode": 4,
          "material": 2
        }
      ]
    },
    {
      "primitives": [
        {
          "attributes": {
            "POSITION": 0,
            "NORMAL": 1
          },
          "indices": 16,
          "mode": 4,
          "material": 3
        },
        {
          "attributes": {
            "POSITION": 0,
            "NORMAL": 1
          },
          "indices": 17,
          "mode": 4,
          "material": 4
        },
        {
          "attributes": {
            "POSITION": 0,
            "NORMAL": 1
          },
          "indices": 18,
          "mode": 4,
          "material": 1
        },
        {
          "attributes": {
            "POSITION": 0,
            "NORMAL": 1
          },
          "indices": 19,
          "mode": 4,
          "material": 2
        },
        {
          "attributes": {
            "POSITION": 2,
            "NORMAL": 3,
            "TEXCOORD_0": 4
          },
          "indices": 20,
          "mode": 4,
          "material": 5
        },
        {
          "attributes": {
            "POSITION": 0,
            "NORMAL": 1
          },
          "indices": 21,
          "mode": 4,
          "material": 0
        }
      ]
    },
    {
      "primitives": [
        {
          "attributes": {
            "POSITION": 0,
            "NORMAL": 1
          },
          "indices": 22,
          "mode": 4,
          "material": 2
        },
        {
          "attributes": {
            "POSITION": 0,
            "NORMAL": 1
          },
          "indices": 23,
          "mode": 4,
          "material": 4
        },
        {
          "attributes": {
            "POSITION": 0,
            "NORMAL": 1
          },
          "indices": 24,
          "mode": 4,
          "material": 6
        },
        {
          "attributes": {
            "POSITION": 0,
            "NORMAL": 1
          },
          "indices": 25,
          "mode": 4,
          "material": 1
        }
      ]
    },
    {
      "primitives": [
        {
          "attributes": {
            "POSITION": 0,
            "NORMAL": 1
          },
          "indices": 26,
          "mode": 4,
          "material": 6
        }
      ]
    },
    {
      "primitives": [
        {
          "attributes": {
            "POSITION": 0,
            "NORMAL": 1
          },
          "indices": 27,
          "mode": 4,
          "material": 0
        },
        {
          "attributes": {
            "POSITION": 0,
            "NORMAL": 1
          },
          "indices": 28,
          "mode": 4,
          "material": 1
        }
      ]
    }
  ],
  "accessors": [
    {
      "bufferView": 1,
      "componentType": 5126,
      "count": 7021,
      "type": "VEC3",
      "min": [
        -57.49707427378895,
        235.09968823974572,
        -69.4088908379847
      ],
      "max": [
        56.60656859045697,
        433.2249819566648,
        51.59393296703101
      ]
    },
    {
      "bufferView": 2,
      "componentType": 5126,
      "count": 7021,
      "type": "VEC3",
      "min": [
        -1.0,
        -1.0,
        -1.0
      ],
      "max": [
        1.0,
        1.0,
        1.0
      ]
    },
    {
      "bufferView": 3,
      "componentType": 5126,
      "count": 11,
      "type": "VEC3",
      "min": [
        -11.884539137685245,
        273.42565609309594,
        41.62641976546417
      ],
      "max": [
        -6.151131542367698,
        281.6719351139669,
        42.766865443401365
      ]
    },
    {
      "bufferView": 4,
      "componentType": 5126,
      "count": 11,
      "type": "VEC3",
      "min": [
        -0.1950903220161397,
        -2.2990631282133403e-15,
        0.9807852804032283
      ],
      "max": [
        -0.1950903220161278,
        -2.140860176448936e-15,
        0.9807852804032307
      ]
    },
    {
      "bufferView": 5,
      "componentType": 5126,
      "count": 11,
      "type": "VEC2",
      "min": [
        -23.19730586741693,
        -1824.018290161527
      ],
      "max": [
        15.160513624641254,
        -1769.9088477673604
      ]
    },
    {
      "bufferView": 6,
      "componentType": 5123,
      "count": 432,
      "type": "SCALAR"
    },
    {
      "bufferView": 6,
      "componentType": 5123,
      "count": 6,
      "type": "SCALAR",
      "byteOffset": 864
    },
    {
      "bufferView": 6,
      "componentType": 5123,
      "count": 36,
      "type": "SCALAR",
      "byteOffset": 876
    },
    {
      "bufferView": 6,
      "componentType": 5123,
      "count": 6,
      "type": "SCALAR",
      "byteOffset": 948
    },
    {
      "bufferView": 6,
      "componentType": 5123,
      "count": 432,
      "type": "SCALAR",
      "byteOffset": 960
    },
    {
      "bufferView": 6,
      "componentType": 5123,
      "count": 21,
      "type": "SCALAR",
      "byteOffset": 1824
    },
    {
      "bufferView": 6,
      "componentType": 5123,
      "count": 36,
      "type": "SCALAR",
      "byteOffset": 1866
    },
    {
      "bufferView": 6,
      "componentType": 5123,
      "count": 6,
      "type": "SCALAR",
      "byteOffset": 1938
    },
    {
      "bufferView": 6,
      "componentType": 5123,
      "count": 858,
      "type": "SCALAR",
      "byteOffset": 1950
    },
    {
      "bufferView": 6,
      "componentType": 5123,
      "count": 294,
      "type": "SCALAR",
      "byteOffset": 3666
    },
    {
      "bufferView": 6,
      "componentType": 5123,
      "count": 1182,
      "type": "SCALAR",
      "byteOffset": 4254
    },
    {
      "bufferView": 6,
      "componentType": 5123,
      "count": 270,
      "type": "SCALAR",
      "byteOffset": 6618
    },
    {
      "bufferView": 6,
      "componentType": 5123,
      "count": 591,
      "type": "SCALAR",
      "byteOffset": 7158
    },
    {
      "bufferView": 6,
      "componentType": 5123,
      "count": 516,
      "type": "SCALAR",
      "byteOffset": 8340
    },
    {
      "bufferView": 6,
      "componentType": 5123,
      "count": 1386,
      "type": "SCALAR",
      "byteOffset": 9372
    },
    {
      "bufferView": 7,
      "componentType": 5121,
      "count": 21,
      "type": "SCALAR"
    },
    {
      "bufferView": 6,
      "componentType": 5123,
      "count": 6,
      "type": "SCALAR",
      "byteOffset": 12144
    },
    {
      "bufferView": 6,
      "componentType": 5123,
      "count": 294,
      "type": "SCALAR",
      "byteOffset": 12156
    },
    {
      "bufferView": 6,
      "componentType": 5123,
      "count": 432,
      "type": "SCALAR",
      "byteOffset": 12744
    },
    {
      "bufferView": 6,
      "componentType": 5123,
      "count": 402,
      "type": "SCALAR",
      "byteOffset": 13608
    },
    {
      "bufferView": 6,
      "componentType": 5123,
      "count": 756,
      "type": "SCALAR",
      "byteOffset": 14412
    },
    {
      "bufferView": 6,
      "componentType": 5123,
      "count": 288,
      "type": "SCALAR",
      "byteOffset": 15924
    },
    {
      "bufferView": 6,
      "componentType": 5123,
      "count": 9072,
      "type": "SCALAR",
      "byteOffset": 16500
    },
    {
      "bufferView": 6,
      "componentType": 5123,
      "count": 18,
      "type": "SCALAR",
      "byteOffset": 34644
    }
  ],
  "bufferViews": [
    {
      "buffer": 0,
      "byteLength": 5526
    },
    {
      "buffer": 0,
      "byteOffset": 5532,
      "byteLength": 84252,
      "target": 34962,
      "byteStride": 12
    },
    {
      "buffer": 0,
      "byteOffset": 89784,
      "byteLength": 84252,
      "target": 34962,
      "byteStride": 12
    },
    {
      "buffer": 0,
      "byteOffset": 174036,
      "byteLength": 132,
      "target": 34962,
      "byteStride": 12
    },
    {
      "buffer": 0,
      "byteOffset": 174168,
      "byteLength": 132,
      "target": 34962,
      "byteStride": 12
    },
    {
      "buffer": 0,
      "byteOffset": 174304,
      "byteLength": 88,
      "target": 34962,
      "byteStride": 8
    },
    {
      "buffer": 0,
      "byteOffset": 174392,
      "byteLength": 34680,
      "target": 34963
    },
    {
      "buffer": 0,
      "byteOffset": 209072,
      "byteLength": 21,
      "target": 34963
    }
  ],
  "buffers": [
    {
      "uri": "data:application/octet-stream;base64,",
      "byteLength": 209093
    }
  ]
}